
<svg

   xmlns:svg="http://www.w3.org/2000/svg"
   xmlns="http://www.w3.org/2000/svg"
   xmlns:inkscape="http://www.inkscape.org/namespaces/inkscape"
   width="40"
   height="40"
   style="fill:currentColor!important"
   viewBox="0 0 39.999999 39.999999">
  <g
     inkscape:groupmode="layer"
     id="layer2"
     inkscape:label="Layer 1"
     style="display:inline"
     transform="translate(0,-24)">
    <path
      fill="#000"
       d="m 9.1455329,32.553657 c -1.2548275,0 -2.2650315,1.010203 -2.2650315,2.265032 V 52.90477 c 0,1.254828 1.010204,2.265032 2.2650315,2.265032 1.2548281,0 2.2650311,-1.010204 2.2650311,-2.265032 v -7.013542 h 16.753424 v 7.013542 c 0,1.254828 1.010204,2.265032 2.265031,2.265032 h 0.07811 c 1.254828,0 2.265032,-1.010204 2.265032,-2.265032 V 34.818689 c 0,-1.254829 -1.010204,-2.265032 -2.265032,-2.265032 h -0.07811 c -1.254827,0 -2.265031,1.010203 -2.265031,2.265032 v 6.87564 H 11.410564 v -6.87564 c 0,-1.254829 -1.010203,-2.265032 -2.2650311,-2.265032 z m -5.0963208,3.452465 c -1.0276604,0 -1.8549827,0.827323 -1.8549827,1.854982 v 11.946333 c 0,1.027661 0.8273223,1.854983 1.8549827,1.854983 1.0276603,0 1.8549826,-0.827322 1.8549826,-1.854983 V 37.861104 c 0,-1.027659 -0.8273223,-1.854982 -1.8549826,-1.854982 z m 31.6323369,0 c -1.02766,0 -1.854983,0.827323 -1.854983,1.854982 v 11.946333 c 0,1.027661 0.827323,1.854983 1.854983,1.854983 1.02766,0 1.854983,-0.827322 1.854983,-1.854983 V 37.861104 c 0,-1.027659 -0.827323,-1.854982 -1.854983,-1.854982 z M 0.67119105,40.368993 c -0.36779425,0 -0.66388854,0.296094 -0.66388854,0.663887 v 5.602781 c 0,0.367794 0.29609429,0.663889 0.66388854,0.663889 0.36779425,0 0.66388845,-0.296095 0.66388845,-0.663889 V 41.03288 c 0,-0.367793 -0.2960942,-0.663887 -0.66388845,-0.663887 z m 38.62269295,0 c -0.38943,0 -0.702942,0.313512 -0.702942,0.702941 v 5.524675 c 0,0.389428 0.313512,0.702941 0.702942,0.702941 0.389429,0 0.702941,-0.313513 0.702941,-0.702941 v -5.524675 c 0,-0.389429 -0.313512,-0.702941 -0.702941,-0.702941 z" />
  </g>
</svg>
